<svg style="fill:white;" xmlns="http://www.w3.org/2000/svg" viewBox="0 0 1230.52 500"><g id="EPS"><polygon points="797.85 240.83 825.36 362.55 1004.62 273.35 797.85 240.83"/><polygon points="848.71 56.57 800.35 233.32 1000.45 265.01 848.71 56.57"/><polygon points="630.27 29.89 842.87 55.74 792.85 237.49 630.27 29.89"/><polygon points="627.77 64.91 652.78 64.91 719.48 150.78 627.77 64.91"/><polygon points="1010.45 271.68 947.92 185.8 1047.97 166.63 1010.45 271.68"/><polygon points="1000.45 295.86 1006.28 277.51 850.37 357.55 1000.45 295.86"/><polygon points="793.68 244.16 826.2 391.74 729.48 470.11 793.68 244.16"/><polygon points="1038.8 210.81 1097.16 210.81 1054.64 168.29 1038.8 210.81"/><path d="M151.7,201.64H278.43V220H150v148.4a87,87,0,0,0-9.17-.83,46.29,46.29,0,0,0-7.5.83V200.81c0-43.35,16.67-68.37,58.36-70.87,37.52-2.5,66.7,19.18,86.71,30v21.67l-2.5.84c-3.34-8.34-48.36-45.86-77.54-42.52-30,3.33-48.36,24.18-48.36,51.69,0,0,0,7.5,1.67,10Zm260.13,30.85c31.68-.83,47.52,10,48.35,34.18.84,13.34-5,25.85-14.17,36.69l-15.84.83v-2.5c5.84-1.67,19.18-10.84,18.34-27.51s-13.34-30-33.35-29.18a14.73,14.73,0,0,0-5,.83Z"/><polygon points="260.92 216.65 278.43 216.65 278.43 368.39 260.92 362.55 260.92 216.65"/><path d="M584.41,237.49c-6.67-22.51-25.84-35.85-40-35.85H506.87V220h25c10.83,0,21.67-.84,31.68,8.33,4.17,4.17,5.83,8.34,7.5,14.18,3.34,14.17-3.33,31.68-20,31.68-5,0-10.84,0-15.84-1.67v.83c4.17,5,6.67,11.68,10,17.51,10-1.66,20-7.5,26.68-14.17,9.17-10.84,15-24.18,12.5-39.19"/><path d="M611.92,204.14c-10.83,1.67-27.51,10.84-33.34,34.19-1.67,15,2.5,28.34,12.5,38.35,5.84,6.67,15,12.51,23.35,14.17a176.21,176.21,0,0,1,9.17-17.51l-.84-.83c-4.17,1.67-9.17,1.67-14.17,1.67-17.51-.84-20-18.34-17.51-31.68,2.5-11.68,12.51-23.35,23.35-24.18,11.67-.84,25.84,8.34,28.34,20.84,1.67,6.67,1.67,13.34,1.67,20V369.22a42.32,42.32,0,0,1,16.68,0V203.31H642.77v18.34c0-.83.84-.83,0-2.5-5.83-10.84-20.84-16.67-30.85-15m-108.38-2.5V368.39a42.32,42.32,0,0,0-16.68,0V220H282.6V201.64ZM278.43,368.39h-2.5c-65,0-101.72-35.85-101.72-71.7,0-30,27.52-65,90.88-65L275.93,240c-44.19,0-80,28.34-80,56.69,0,25,31.68,65,82.54,65Z"/><polygon points="396.82 216.65 414.33 216.65 414.33 368.39 396.82 362.55 396.82 216.65"/><path d="M414.33,368.39h-2.5c-65,0-101.72-35.85-101.72-71.7,0-30,27.52-65,90.88-65L411.83,240c-44.19,0-80,28.34-80,56.69,0,25,31.68,65,82.54,65Z"/></g></svg>