<svg style="fill:white;"  xmlns="http://www.w3.org/2000/svg" viewBox="0 0 1230.52 500"><defs><style>.cls-1{fill-rule:evenodd;}</style></defs><g id="Kotak"><g id="layer1"><g id="g394"><g id="path380"><path class="cls-1" d="M569.67,255.88,625,232.56l53.64,23.93L625,171.74Zm.19,25.89,55.35,32,56.39-32-55.86,77.76Z"/></g><g id="path382"><polygon class="cls-1" points="625.29 243.97 567.64 268.25 625.29 300.25 681.3 268.9 625.29 243.97"/></g></g><path d="M624.18,421.94c-86.18,0-156.3-70.12-156.3-156.3S538,109.33,624.18,109.33s156.31,70.12,156.31,156.31S710.37,421.94,624.18,421.94Zm0-300.5c-79.51,0-144.19,64.69-144.19,144.2s64.68,144.19,144.19,144.19,144.2-64.68,144.2-144.19S703.69,121.44,624.18,121.44Z"/></g><path d="M1041.06,420.35a157.71,157.71,0,0,1-143.12-91.21c-36.55-78.78-2.2-172.61,76.58-209.16s172.37-2.3,209,76.27h0l.14.31c36.56,78.78,2.2,172.62-76.58,209.17A156.65,156.65,0,0,1,1041.06,420.35Zm-.46-302.28a144,144,0,0,0-60.73,13.44c-72.41,33.61-104,119.86-70.39,192.28s119.85,104,192.27,70.4A144.77,144.77,0,0,0,1172.19,202l0-.09A145,145,0,0,0,1040.6,118.07Z"/><path d="M1107.49,241.31c3-20.12-12.31-30.95-33.26-38.15L1081,176l-16.61-4.14-6.62,26.55c-4.35-1.11-8.83-2.14-13.18-3.14l6.65-26.7-16.58-4.14-6.78,27.23-33.48-8.28L990,201.11s12.31,2.82,12.05,3c6.72,1.66,7.91,6.12,7.72,9.65l-18.71,74.55a6,6,0,0,1-7.48,4l-.12,0c.16.27-12.07-3-12.07-3l-8.28,19,33.4,8.44-6.85,27.57,16.55,4.14,7-27.39c4.53,1.24,8.91,2.37,13.18,3.43l-6.78,27.15,16.58,4.14,6.88-27.52c28.29,5.27,49.56,3.19,58.52-22.38,7.2-20.59-.37-32.48-15.23-40.23,10.83-2.63,19-9.64,21.09-24.38m-37.91,53.17c-5.14,20.59-39.8,9.46-51.06,6.67l9.09-36.54c11.26,2.82,47.32,8.36,42,29.84m5.14-53.43c-4.67,18.74-33.53,9.23-42.91,6.88l8.25-33.13c9.38,2.34,39.54,6.69,34.66,26.36"/><path d="M200,421.94c-86.19,0-156.31-70.12-156.31-156.3S113.81,109.33,200,109.33s156.31,70.12,156.31,156.31S286.19,421.94,200,421.94Zm0-300.5c-79.51,0-144.19,64.69-144.19,144.2S120.49,409.83,200,409.83s144.2-64.68,144.2-144.19S279.51,121.44,200,121.44Z"/><path d="M191.22,305.78,201,269l23.11-8.46L229.84,239l-.21-.53-22.75,8.3,16.4-61.71H176.8l-21.43,80.59-17.89,6.53-5.91,22.28,17.87-6.54-12.62,47.45H260.5l7.9-29.52H191.22"/></g></svg>