<svg  id="Layer_1" data-name="Layer 1" xmlns="http://www.w3.org/2000/svg" viewBox="0 0 500 260"><defs><style>.cls-1{fill:#fff;}</style></defs><g id="Path_69" data-name="Path 69"><path class="cls-1" d="M405.88,130a96.33,96.33,0,0,1-159.75,72.57,91,91,0,0,0,13.78-13.05c1.3-1.52,2.55-3.07,3.74-4.67H236.52a90.66,90.66,0,0,1-10.74-18.28h48.66a90.22,90.22,0,0,0,5.81-18.28H220A90.5,90.5,0,0,1,218.1,130h64a93.59,93.59,0,0,0-1.83-18.28H219.92a91,91,0,0,1,5.86-18.28h48.66a91.1,91.1,0,0,0-10.75-18.27H236.52a91.59,91.59,0,0,1,13.53-14.57q-1.92-1.65-3.91-3.17A96.33,96.33,0,0,1,405.88,130Z"/><path class="cls-1" d="M309.51,28.66h0A100.75,100.75,0,0,0,250.08,48q1.08.78,2.13,1.59l6.15,4.72A91.4,91.4,0,0,1,400.89,130h0a91.4,91.4,0,0,1-142.55,75.75l-6.14,4.71-2.14,1.6A101.35,101.35,0,1,0,309.51,28.66Z"/></g><path class="cls-1" d="M190.49,221.42A91.42,91.42,0,1,1,242,54.46a98.85,98.85,0,0,1,8.07-6.5,100.23,100.23,0,0,0-59.51-19.35h0a101.39,101.39,0,1,0,59.5,183.47,98.82,98.82,0,0,1-8.06-6.51A91.35,91.35,0,0,1,190.49,221.42Z"/><path class="cls-1" d="M242,54.46s2,1.34,4.13,3l8.09-6.35L250.08,48l-5.39,3.66Z"/><path class="cls-1" d="M242,205.57s1.76-1.11,4.13-3l8.61,6.55-5.11,3.26Z"/></svg>
