<svg style="fill:white;" xmlns="http://www.w3.org/2000/svg" viewBox="0 0 1230.52 500"><g id="EPS"><path d="M792.36,224.17c2.26,3.43,4.43,6.53,6.39,9.76a17.16,17.16,0,0,0,12.63,8.25,41,41,0,0,0,25.29-3.86,26.43,26.43,0,0,0,5.81-4,13.25,13.25,0,0,0,.93-18.86c-3.57-3.72-9.49-5-14.11-2.08-9.93,6.3-32.5,5.17-44.16-2.76-9.5-6.46-13.92-15.56-14.71-26.71-1.15-16.24,6.23-28.35,18.66-37.92,11.27-8.67,24.26-12.25,38.29-13.08,17.61-1,32.32,5.86,45.66,16.34,7.1,5.59,13.66,11.88,20.45,17.85a8.33,8.33,0,0,0,.14-1.32c0-7.18,0-14.36,0-21.54,0-5.31,2.17-7.49,7.43-7.49h216.67c5.4,0,7.42,2,7.43,7.42,0,4,0,8,0,12.07s-2.36,6.32-6.29,6.46c-.55,0-1.1,0-1.65,0H1006.93v61.22c3-2.67,5.79-5.25,8.67-7.77,11.65-10.19,23.77-19.75,37.34-27.32,7.18-4,14.66-7.32,22.86-8.66a5.29,5.29,0,0,1,2.06,0c10.42,2.67,20.13,6.84,28.41,13.87a42.33,42.33,0,0,1,10.11,12.39c2.26,4.21,1.44,7.07-2.67,9.45-4.4,2.55-7.21,6.51-9.53,10.88-4.3,8.09-6.61,16.83-8.26,25.75a203.52,203.52,0,0,0-3.29,45c.31,8,1.18,16,4.1,23.65a32.74,32.74,0,0,0,2.36,4.88c2.55,4.26,5.25,5.46,10.12,4.59,1.78-.31,3.55-.72,5.32-1.11s3.37-.74,5.14-1.14a24.94,24.94,0,0,1,4.95,13.08,37.9,37.9,0,0,1-.18,8.72c-1.19,6.68-6.09,11.11-13.25,12.38-12.61,2.25-22.57-2.32-30.35-12.13-5.62-7.09-9-15.31-11.55-23.88a170.14,170.14,0,0,1-6.61-39.53c-1-19-1.69-37.92-2.51-57-.5.28-1.31.69-2.08,1.16-20.06,12.12-33,29.79-40.4,51.79a139.9,139.9,0,0,0-5.77,24.57c-.64,4.39-4,6.87-7.86,5.39-11.08-4.29-22.08-8.76-33.27-13.22V162.81H929.64v3q0,94.8,0,189.58c0,2.87-.1,5.59-2.93,7.22s-5.4.4-7.93-1.11q-11.56-6.92-23.22-13.67a3.5,3.5,0,0,1-2-3.54q.07-70.41,0-140.82a7.5,7.5,0,0,0-.68-3.61A95,95,0,0,0,864,168.16c-7.12-4.85-15-7.64-23.78-7.28-6.38.26-12.3,1.92-17.24,6.18a18.75,18.75,0,0,0-6.8,12.82c-.47,5.27,1.93,9.1,6.22,11.9a6.74,6.74,0,0,0,5.84.87,120.13,120.13,0,0,1,13.53-3.3,25.47,25.47,0,0,1,21.13,6.15c9,7.7,15.34,17.3,17,29.17a51.07,51.07,0,0,1-5.09,29.87c-8.83,18.18-23.55,27.63-43.64,28.7-17.32.92-31.33-5.48-41.18-19.89-5.54-8.1-6.75-17-2.88-26.31C788.89,232.86,790.56,228.64,792.36,224.17Z"/><path d="M210.28,118.44c-1.64,3.66-3.34,7.28-4.91,11a202.4,202.4,0,0,0-14.75,57.44c-4,36.63.25,72.18,14.37,106.34,8.52,20.64,20.37,39.12,36.88,54.37,14.3,13.21,30.65,22.88,50.07,26,36.61,5.84,69.31-2.47,96.22-28.88a99.24,99.24,0,0,0,29.69-59.86c3.92-31.49-4.73-59.38-25.65-83.36-1.69-1.93-3.5-3.76-5.61-6,5.19.37,9.89.56,14.55,1.08a172.36,172.36,0,0,1,90.15,37.61,8.25,8.25,0,0,1,.65.67c.14,1.88.43,3.76.42,5.63-.06,10.94.55,21.88-.81,32.81a166.73,166.73,0,0,1-6.11,28.49,175.59,175.59,0,0,1-15.16,34.54,166,166,0,0,1-25.09,33.86c-4.43,4.58-9.17,8.88-13.95,13.09a158.43,158.43,0,0,1-30,20.41A170.16,170.16,0,0,1,358,419.73a165.82,165.82,0,0,1-26.31,3.79c-5.86.36-11.77.08-17.66.14a132.78,132.78,0,0,1-24.36-2.41,168.58,168.58,0,0,1-51.9-18.07,164.68,164.68,0,0,1-42.05-32.06c-4.46-4.76-8.8-9.66-12.85-14.77a164.5,164.5,0,0,1-23.34-40.62,169.77,169.77,0,0,1-9.29-31.85,167.94,167.94,0,0,1-3-28.51,199.32,199.32,0,0,1,3.73-40,167.11,167.11,0,0,1,23.37-57.13,171.8,171.8,0,0,1,30.72-36A61.76,61.76,0,0,1,210.28,118.44Z"/><path d="M210.28,118.44a61.76,61.76,0,0,0-5.23,3.8,171.8,171.8,0,0,0-30.72,36A167.11,167.11,0,0,0,151,215.35a199.32,199.32,0,0,0-3.73,40,167.94,167.94,0,0,0,3,28.51,169.77,169.77,0,0,0,9.29,31.85,164.5,164.5,0,0,0,23.34,40.62c4,5.11,8.39,10,12.85,14.77a164.68,164.68,0,0,0,42.05,32.06,168.58,168.58,0,0,0,51.9,18.07,132.78,132.78,0,0,0,24.36,2.41c5.89-.06,11.8.22,17.66-.14A165.82,165.82,0,0,0,358,419.73a170.16,170.16,0,0,0,43.21-16.13,158.43,158.43,0,0,0,30-20.41c4.78-4.21,9.52-8.51,13.95-13.09a166,166,0,0,0,25.09-33.86,175.59,175.59,0,0,0,15.16-34.54,166.73,166.73,0,0,0,6.11-28.49c1.36-10.93.75-21.87.81-32.81,0-1.87-.28-3.75-.42-5.63l8.45,7c2.41-3.63,4.88-7.34,7.35-11l.53.07c.51,2.73,1.13,5.45,1.53,8.2,8.68,59.56-5.37,113-44,159.35-29.73,35.63-67.89,57.72-113.43,66.81a192.93,192.93,0,0,1-62.15,2.09c-42-5.3-78.61-22.21-109.67-50.84C148.64,387,128,351,120.36,308.26c-11.5-64.38,4.64-121.49,48.17-170.51a188,188,0,0,1,56.51-43l.38.49-14.7,22.57-.44.61Z"/><path d="M755.48,162.69V355.38c0,.63,0,1.26,0,1.89-.12,5.11-4.7,7.72-9.15,5.14-3.68-2.14-7.27-4.43-10.9-6.66-4.63-2.85-9.23-5.74-13.91-8.51a3.43,3.43,0,0,1-1.9-3.36c0-12.46-.09-24.92-.39-37.37-.34-14.28-4.86-27.33-12.14-39.52-5.56-9.32-12.24-17.62-21.48-23.55s-19.39-8.61-30.39-7.26a18.74,18.74,0,0,0-6.44,2.13c-8.44,4.54-13.59,16.21-11.39,25.51a14.26,14.26,0,0,0,5.19,8.23c7.22,5.63,18.77,8.17,27.53,1,3.42-2.79,5.24-6.16,5.13-10.61-.09-3.47,0-6.94,0-10.68.68.31,1.23.5,1.73.78,3.29,1.86,6.61,3.68,9.85,5.62,18,10.72,18.69,33.75,4.46,47-9.08,8.48-20.06,11.5-32.22,10.82a56.73,56.73,0,0,1-23.59-6.19c-11.43-6-18.88-15.6-23.55-27.37-4.78-12.1-6.67-24.82-4.28-37.58,3.31-17.64,12.08-32.21,27.57-42,7.75-4.92,16.43-6.17,25.46-5.32,17,1.59,30.83,9.7,42.73,21.29,5.4,5.26,10,11.34,14.93,17.06.35.39.67.82,1.23,1.51V162.69H614.36c-5.65,0-7.74-2.06-7.74-7.66,0-3.86,0-7.73,0-11.6,0-4.37,2.35-6.69,6.76-6.7h152c4.52,0,6.81,2.33,6.83,6.88,0,4.1,0,8.21,0,12.31,0,4.37-2.38,6.72-6.73,6.76C762.27,162.71,759,162.69,755.48,162.69Z"/><path d="M271.71,208c4.43-4.23,8.66-8.69,13.32-12.65,22.86-19.43,49.3-31.63,78.42-38.33a225.56,225.56,0,0,1,59.16-5.48c11.17.41,22.31,1.64,33.81,2.53q-.75-20.73-1.53-42.57c36.52,1.36,69.13,12.3,97.45,35.92-17.91,27-35.73,53.9-53.62,80.91-3-2.68-5.66-5.3-8.54-7.71-14.7-12.28-31.37-21-49.5-27a177.93,177.93,0,0,0-47-8.7,246.89,246.89,0,0,0-91.78,12.16c-9.32,3.11-18.34,7.11-27.49,10.71-.71.28-1.41.6-2.11.9Z"/><path d="M351.24,116.25c-6.62-12.35-13.19-24.63-20-37.29C364.62,54.37,402,47.34,442.8,52.08q1.76,45.89,3.51,91.62c-4.54-.48-8.91-1-13.28-1.4a217.85,217.85,0,0,0-37.1-.25,221.81,221.81,0,0,0-46.69,8.33Q280,170.81,243,232.79a51.91,51.91,0,0,1-4,6.2c.58-2.52,1.08-5.07,1.76-7.57,7.35-26.8,21.13-49.9,40.39-69.81s42.2-34.07,67.78-44.24c.59-.23,1.18-.44,1.77-.68A3.67,3.67,0,0,0,351.24,116.25Z"/><path d="M215.4,275c-1.44-4.12-3-8.2-4.32-12.36a191.6,191.6,0,0,1-8.72-48.94Q199,141.82,247.25,88.38c15.22-16.89,33-30.67,52.33-42.52.46-.28,1-.48,1.65-.83l35.61,65.58c-1.08.43-1.95.77-2.8,1.13A177.44,177.44,0,0,0,279.62,148c-28.13,27-46,60.09-56.62,97.29-2.78,9.74-4.85,19.68-7.24,29.53Z"/><path d="M906.34,410.37A35.72,35.72,0,0,1,907,416c-.18,7.05-6.11,11.1-12.82,8.8-2.73-.93-5.11-2.36-6.36-5.22-.82-1.87-1.86-3.64-2.82-5.48l2.51-2.63c1.24,2.2,2.36,4.37,3.65,6.42a7.15,7.15,0,0,0,7.85,2.88c2.86-.85,4.05-2.91,3.45-6a23.39,23.39,0,0,1-3.64,1.45,5.25,5.25,0,0,1-6.7-5.07,25.7,25.7,0,0,1,1.11-5.93,10.38,10.38,0,0,1,1-2H882.7v23.63h-4.52V403.2H863.32v8.54l8-3.15c4.6,2.46,4,6.45,3.07,10.37a10.47,10.47,0,0,1-8.93,8,13.58,13.58,0,0,1-12.22-4.23A28.29,28.29,0,0,1,847,411.89l3.37-2.3a24.9,24.9,0,0,0,1.54,3.44c1.61,2.49,3.07,5.18,5.12,7.27a8,8,0,0,0,9.14,1.91c3.24-1.36,4.81-4.65,4.12-8.58l-6,2.57c-2.11.9-5.25-1.1-5.29-3.44-.06-3.14,0-6.28,0-9.58H844.49v23.58H840v-23.6l-3.17-.23v-3.8l3-.14c1.7-10.11,10.18-15,20.57-11.62,3.54,1.15,6.79,3.19,10.55,5l-2.56,3.3c-2.45-1.23-4.76-2.54-7.19-3.58a16,16,0,0,0-9-1.28c-4.09.64-7.61,3.58-7.71,8.07H878c.19-1.05.31-2.15.59-3.2,1.3-4.86,5.79-8.35,11.31-9a21.45,21.45,0,0,1,13.62,2.81c1.7,1,3.38,2,5.32,3.16l-2.32,3.05c-2.38-1.19-4.64-2.44-7-3.49a15.62,15.62,0,0,0-9.9-1.26c-4.16.9-6.67,3.64-7,7.95h51.68a5.65,5.65,0,0,0-6.89-5.36,45.36,45.36,0,0,0-6.71,2.2,21.74,21.74,0,0,0-2.21,1.06l-1.4-3.18A20.52,20.52,0,0,1,928,389.74c5.8-.22,9.49,2.8,11.17,9.24h44v3.92l-3,.26v23.65h-4c0-2,.08-4,0-5.91a29.08,29.08,0,0,0-.65-4.65,2.93,2.93,0,0,0-2.66-2.61c-1.71-.14-2.54,1-3.14,2.4a19.76,19.76,0,0,0-.66,2h-4.18a20.3,20.3,0,0,0-1.54-3.44c-1.44-2.08-3.94-1.86-5.18.35-1.87,3.32-.13,6.46,3.67,6.62.7,0,1.4,0,2.29,0-.23.86-.38,1.51-.59,2.16s-.49,1.32-.72,1.93a8,8,0,0,1-9.46-4.77c-1.54-4-.29-8.76,2.9-10.82,3.53-2.28,7.25-1.6,10.68,1.91a30.09,30.09,0,0,1,4.14-2.91c1.7-.81,3.35-.12,5,1.49,0-2.23,0-4,0-5.8,0-.53-.07-1.07-.11-1.69h-27v23.71h-4.56v-23.7H922.71v19.3c3.75,1.13,10.53-1.59,12.36-4.95.91-1.67.87-3.83-.2-4.9-1.41-1.41-3-1-4.6-.27-.7.31-1.38.68-2.24,1.1-.6-1.32-1.13-2.51-1.68-3.73a10.24,10.24,0,0,1,7.78-2.34c5,.39,7.63,6.26,5.16,11.33-1.68,3.45-4.66,5.49-8.13,6.84-4.13,1.59-8.45,1.54-13,1.43V403.13H905.31a4.61,4.61,0,0,0,5.27,3.33c2.46-.23,3.35,1.34,4.37,2.83a2.6,2.6,0,0,1-.2,2.1C913,415,912,418.76,912.94,422.8c.3,1.29.73,2.54,1.16,4.05l-2.74,1.51c-3.09-3.66-3.26-6.2-1.23-17.58l-3.71-1.21c-2.59-1.4-4.88-3.12-6.07-6.12a8.11,8.11,0,0,0-3.73,4.86c-.26,1.07-.16,2.74.51,3.42,1.12,1.13,2.45,0,3.59-.7a2.11,2.11,0,0,0,.35-.32A4.17,4.17,0,0,1,906.34,410.37Z"/><path d="M738.38,402.87H722.62v23.92c-2.37.54-3.88,0-5.62-1.78a29.71,29.71,0,0,0-17.36-8.57l-1.18-4.4c5.73-4.1,12.51-5.8,18.76-8.82H695.93V426.8h-4.45V403.17l-3.28-.27v-3.72l3-.19c.13-.51.28-1.08.4-1.67,1.23-6.18,5.54-9.93,11.85-10.69s11.59,1.42,16.65,4.73l2,1.31-2.3,3.1c-1.39-.78-2.7-1.59-4.08-2.28-4-2-8.06-3.58-12.69-2.57-4.38,1-6.87,3.74-7,8.09h82.68c.14.7.24,1.28.38,2,2.23-1.44,4.64-2.39,7.16-1.53a56.62,56.62,0,0,1,6.44,3.1v-3.45h33.91v3.74l-2.68.27V426.8c-2.27.5-3.85.17-5.44-1.69-3.78-4.43-10.81-7.69-17-8.34-.39-1.4-.81-2.88-1.26-4.49,5.72-3.77,12-6.28,18.19-9H797.06v23.33h-4.38c0-4.64-.14-9.26,0-13.87.15-3.67-1.67-6.16-4.34-8.15a5,5,0,0,0-6.4-.15c1.14.24,2,.38,2.8.61,3.19.9,4.67,3.29,3.87,6.48-1,4-3.69,6.45-7.56,7.93L778.43,416a28.34,28.34,0,0,0,3.7-2.47,27.32,27.32,0,0,0,2.79-3.53,9.09,9.09,0,0,0-7.28-1.67l-2.09-3.75c-4,3.55-7,7.29-6.6,12.9.3,4.77,4.22,9.51,10.38,6.14v4.22c-4,2.2-9.69.94-12.11-2.81a14.47,14.47,0,0,1-.42-16.07c1.13-1.95,2.6-3.7,4.05-5.73h-9.63v23.7H756.8V402.83H744.17ZM706.3,413.12l12,6.83V408Zm113.32-5.2-11.72,5.26L819.62,420Z"/><path d="M1081.61,403.16v8.46l11.68-6c3.06,2.7,4.26,5.27,2.44,9s-1,7.85.56,11.9l-3.23,1.58c-3-5.14-2.29-10.52-1.49-15.91l-.44-.41-10.91,7.48c-2.14-1.37-3.54-3.18-3.21-6.22a81.66,81.66,0,0,0,.06-8.63c-4.68,3.86-7.52,8-6.78,13.88.62,4.94,5.11,8.31,10.23,5.32v4.34c-5.23,2.25-10.44.53-12.89-4.35a14.47,14.47,0,0,1,.43-14.66c1.15-1.93,2.6-3.7,4-5.73h-8.69v23.69h-4.5c.7-4.74-1.88-7.94-5.3-10.57a17.49,17.49,0,0,0-4.57-2.35,3.28,3.28,0,0,0-4.29,1.48,4.36,4.36,0,0,0,.06,3.47c.81,1.61,2.52,1.66,4.17,1.25.3-.08.59-.19,1.08-.35.43,1.31.83,2.55,1.23,3.78a7.83,7.83,0,0,1-8.44,0,8.17,8.17,0,0,1-2.87-8.87,7.57,7.57,0,0,1,6.56-5.35,12.46,12.46,0,0,1,9.31,3.34c1,.83,1.85,1.71,2.86,2.63V403.12h-22.23v23.71h-4.13c0-1.28.05-2.67,0-4.05a54.64,54.64,0,0,0-.46-5.86c-.28-1.71-1.12-3.29-3.14-3.27-1.86,0-2.6,1.52-3.09,3.09-.12.38-.2.76-.33,1.28H1021a19.25,19.25,0,0,0-1.45-3.35c-1.42-2.1-3.9-1.89-5.16.32-1.9,3.37-.21,6.45,3.65,6.63.69,0,1.39,0,2.32,0-.5,1.58-.92,2.91-1.32,4.2-4.88.55-8.12-1.23-9.54-5.17s-.08-8.67,3.23-10.68,7-1.4,10.48,2.14c4.18-3.83,5.06-4,9-1.94v-7c-.82,0-1.57-.13-2.33-.13-6.31,0-12.65.38-18.93-.1-7-.54-15.07,9.77-10.28,18.18,1.26,2.22,2.45,2.52,5.57,1.31.26.62.55,1.24.8,1.88s.39,1.17.57,1.72c-3.74,2.41-8.34,1.55-10.26-2.21-2.82-5.51-3.12-11.27.26-16.66a47.88,47.88,0,0,1,6.22-7.38c.56-.59,1.85-.68,2.81-.69q43.92,0,87.84,0h31.13v3.76l-2.42.39v23.63h-4.55c.67-5.36-2.49-8.57-6.35-11.29a12.91,12.91,0,0,0-3.86-1.67,3.27,3.27,0,0,0-4,1.67,4.39,4.39,0,0,0,.08,3.28c.71,1.56,2.31,1.72,3.89,1.42.45-.08.89-.23,1.45-.37l1.22,3.82c-3.07,1.68-6.67,1.47-8.92-.46a8.2,8.2,0,0,1-2.19-9.05,7.51,7.51,0,0,1,7.42-4.8,12.55,12.55,0,0,1,8.49,3.61l2.66,2.43V403.16Z"/><path d="M666.91,403.27a45.25,45.25,0,0,1,4.73,1.89c3.89,2.06,5.49,5.44,4.43,8.95-1,3.15-4.4,5-8.76,4.63V414.6c.65,0,1.33,0,2,0,1.29,0,2.34-.34,2.72-1.74a2.79,2.79,0,0,0-1.26-3.48,45.56,45.56,0,0,0-5.11-1.91v19.26c-2.63.77-4.13.13-5.49-2.23-2.51-4.37-6.11-7.61-11.45-8.13-1.5-4.41-1.52-4.43,2.4-6.81,2.82-1.71,5.69-3.36,8.54-5a3.13,3.13,0,0,0,1.32-1.33H645.08v23.67h-4.4V403.1H625.16v8.64l5.64-2.25c3-1.21,5.58.2,5.91,3.52.49,4.89-.45,9.46-4.92,12.24s-9.5,2.6-14-.36c-3.83-2.49-6.16-6.24-7.94-10.36-.34-.79-.65-1.59-1.06-2.61l3.36-2.25c1,2.19,1.91,4.29,3,6.24,1.9,3.29,4.33,6.07,8.35,6.75,5.5.93,9.53-3.19,8.54-9l-6,2.55c-2.07.88-5.26-1.13-5.3-3.38,0-3.22,0-6.44,0-9.83h-14v-3.78h71.57V403h-11.4Zm-5.49,16.33v-11l-.49-.29-6.09,4.75Z"/><path d="M282,363.77a10,10,0,0,1,2-.84,13,13,0,0,0,6.26-3.12,3.45,3.45,0,0,1,1.16-.8c2.94-.88,3.13-2.94,2.94-5.62-.71-10.45-1.18-20.91-1.79-31.36-.26-4.38.38-8.48,3.25-12s5.67-7.15,8.63-10.61c2.19-2.56,4.78-3.44,8.21-2,3.11,1.28,6.49,1.87,9.74,2.81a4.93,4.93,0,0,0,5.54-1.61c1.11-1.32,2.25-1.46,3.95-1.06a5.42,5.42,0,0,0,3.9-.82c2.83-1.95,5.44-4.23,8.25-6.47a7.57,7.57,0,0,1-2.37,5.91,23.32,23.32,0,0,1-9.07,5.83c-8,3.07-16.07,6-24.08,9-3,1.15-5.95,2.48-8.87,3.84a15.85,15.85,0,0,0-2.55,1.82l.3.57,5.87-1.86c3.34,3.2,3.63,7.31,2.66,11.51-.89,3.9-2.37,7.66-3.41,11.52a33.77,33.77,0,0,0-1,6.25,63.86,63.86,0,0,0-.09,7.32c.14,3.22.44,6.42.73,9.63.26,2.94-.29,3.64-3.19,3.2a12.57,12.57,0,0,0-8,1.21c-3.27,1.68-6.15.07-8.94-1.38Z"/><path d="M328.37,245.44a9.33,9.33,0,0,0-1.78-1.21c-1.1-.42-2.31-.55-3.4-1-2.88-1.17-4.21-3.48-4-6.92,1-.05,2-.13,3-.14,6-.05,12-.07,18-.14a3.26,3.26,0,0,1,3,1.47c5.07,7.56,7.79,15.58,5.32,24.79-1.2,4.49-3.75,7.6-8.29,8.81-2.86.77-5.79,1.3-8.91,2-.29-2.87-.68-5.35-.79-7.85-.26-6.1-3.75-10.18-8.33-13.58a16.54,16.54,0,0,0-3.2-1.37c-.18,3.57-.34,6.61-.51,9.95-1.79,0-3.57.07-5.33-.06-.42,0-.85-.7-1.16-1.15-.15-.22-.05-.62-.05-.93.06-2.84-.61-6,.39-8.42s3.63-4,5.34-5.8a30.4,30.4,0,0,0,5.17,2.15,27.53,27.53,0,0,0,5.3.07Z"/><path d="M325.49,309l14.21-7.65.52.34c-.47,2.2-.81,4.44-1.44,6.59-.85,3-2,5.81-2.88,8.74a12,12,0,0,0-.65,3.44,2,2,0,0,0,1.23,1.42c.37.11,1-.56,1.47-1,.27-.25.33-.7.54-1,2-3.23,4.45-5.49,8.64-4.75,3.1.54,6.27.74,9.31,1.5,6,1.5,12.16,1.63,18.29,1.81,2.6.07,5.21.06,7.81,0,1.48,0,2,.64,1.87,2a3.17,3.17,0,0,1-.12.93c-1.81,4.21-1.32,8.66-1.38,13,0,1.71-.19,3.37-2.42,3.83-.08-.17-.25-.36-.24-.54.34-5-1.58-9.17-4.67-13a4.18,4.18,0,0,0-3.79-1.9c-4.16.32-8.34.54-12.47,1.11-7.33,1-14.63,2.23-21.93,3.47a3.64,3.64,0,0,1-4.14-1.83A78.36,78.36,0,0,1,325.49,309Z"/><path d="M320.76,224.79,319,228l-3,.31,2.31,1.91c-.23,3.51-.7,3.8-3.75,2-1.2-.73-2.25-1.07-3.57-.06l1,1.85c-1.89,4.11-5.77,5.77-9.2,7.92a3.93,3.93,0,0,1-2.39.64c-.71-.1-1.34-.81-2-1.25a16.47,16.47,0,0,1,1.44-2,4.36,4.36,0,0,1,1.35-.66l-.06-.55a20.17,20.17,0,0,1-2.06.14c-2.26,0-4.55,0-6.79-.22a3.19,3.19,0,0,1-2.95-2.94,3.1,3.1,0,0,1,2.47-3.68c-1-2.79.13-4.11,2.68-5.51,1.84-1,2.92-3.61,4-5.67,1.43-2.7,2.75-3.58,5.84-3.18,4,.51,7.24,2.59,10.09,5.26,1.32,1.24,2.54,2.25,4.48,2.06A6.13,6.13,0,0,1,320.76,224.79Z"/><path d="M284.94,281.54c.78.66,1.54,1.35,2.36,2a5.58,5.58,0,0,1,2.44,4.82c0,3.85.27,7.72.16,11.57a8.86,8.86,0,0,1-1.38,4.35A3.21,3.21,0,0,0,288,307c1.26,5.37,2.57,10.79,1.62,16.34-.3,1.74-1.54,3.32-2.28,5-.42,1-.71,2-1.13,3.16H271.12a25.4,25.4,0,0,1-2.38-3.86,19.94,19.94,0,0,1-1.65-5.8c-.36-5.24.76-10.35,2.08-15.39a4,4,0,0,0-.5-3.52,9,9,0,0,1-1.21-4c-.18-2.43.13-4.9-.08-7.32-.34-3.86.92-6.93,4.38-9.57h-6.3l-.79-4.06h11.19c0,.57.09,1.17.1,1.77,0,2.86,2.09,4.14,4.72,2.89,1-.46,1.9-1.06,2.85-1.6l0,0,1.48.48Zm-.95,22c3,.84,4.34.1,4.42-2.78.12-4.4,0-8.82-.19-13.23-.09-2.2-2.1-2.93-3.61-4-1.19-.88-2-.11-3,.39a5.33,5.33,0,0,1-5.81-.27,2.4,2.4,0,0,0-2.81-.42c-2,1.13-3.79,2.79-4,5a80.64,80.64,0,0,0-.06,12c.15,2.43,1.84,3.45,4.09,2.91v-5.37H284ZM270.59,328l7.64-9.39c2.8,3.08,5.35,5.9,7.91,8.73,3.2-3.2,3-13.51-.25-22.13h-15c-.53,2.3-1.14,4.43-1.48,6.59-.66,4.19-1.66,8.39-.59,12.64A20.45,20.45,0,0,0,270.59,328Zm8-1c1.18-.24,3.1.62,3.13-1.41,0-2.23-2-1.45-3.22-1.47s-3.05-.64-3,1.44S277.44,326.79,278.59,327.05Z"/><path d="M347.57,285c-4.7,3.29-8.93,6.38-13.33,9.21-.74.48-2.22,0-3.31-.27a38.36,38.36,0,0,1-3.72-1.3c-.6,3.13-2.52,4.29-5.21,3.65-4.28-1-8.59-1.91-12.88-2.85l-2.07-.47a15.92,15.92,0,0,1,5.91-6.42,2.1,2.1,0,0,1,1.55-.2c4.28,1.39,8.42.56,12.48-.83a100.5,100.5,0,0,0,9.42-3.69,6.09,6.09,0,0,1,6.24.26C344.1,283,345.58,283.8,347.57,285Z"/><path d="M738.38,402.87l5.79,0c0,.32,0,.79.13.92,3.32,2.48,3.45,5.1.26,8-.48-.32-1-.64-1.49-1s-1-.74-1.08-.81c.18-1.21.67-2.24.35-2.86-.42-.79-2.48-.08-3.21,1a3.55,3.55,0,0,0,3.12,5.36c1.7,0,3.42-.87,5.06-1.53a8.48,8.48,0,0,0,2-1.59c.24.2.43.34.59.5,3.41,3.3,3.67,4.71,1.73,9.09-3.4,7.71-12.73,9.49-19,3.36a34.49,34.49,0,0,1-5.71-8c-1.84-3.33-1.61-3.5,1.49-6,.94,2,1.76,4.12,2.83,6.06a15.13,15.13,0,0,0,6,6.48c4.77,2.52,9.54.18,10.48-5.22a39.18,39.18,0,0,1-4.46,1.1,7.78,7.78,0,0,1-8.38-10.53c.47-1.16,1.6-2.05,2.42-3.06C737.67,403.7,738,403.29,738.38,402.87Z"/><path d="M260.86,273.35c-1.22,1.92-.31,3.21,1,4.58a19.06,19.06,0,0,1,2.16,3.4c-1.24.24-2.47.51-3.71.72a17.94,17.94,0,0,1-1.95.1c.53.57.77,1,1.12,1.18,1.65.91,1.62,1.91.37,3.15s-.71,2.72-.13,4.09c.12.28.47.44.61.71.65,1.27,1.41,2.6.38,4-.73.95-3.86,1.23-4.57.58-1-1-1.44-3.53-.32-4.57a4.49,4.49,0,0,0,1.31-4.47,18.93,18.93,0,0,0-1.69-4.82,2.34,2.34,0,0,0-2.13-.13c-3.08,3.88-7.07,3.56-11.21,2.59-4.62-1.08-9.24-2.21-13.86-3.54,5.92-2.51,11.78-5,18.19-5.67a6.43,6.43,0,0,1,6.65,3.14c.36.6,1.36.81,1.73,1,.89-2.26,1.42-4.29,2.51-6,.4-.62,2.11-.41,3.22-.57Z"/><path d="M339,275.94h46.23v5.86h-2.57c-11.2,0-22.4,0-33.6,0a6.09,6.09,0,0,1-4.3-1.48C343.06,278.9,341.21,277.62,339,275.94Z"/><path d="M318.44,264v9.65c-1.07-.31-2-.5-2.93-.85a82.85,82.85,0,0,1-17.65-9.88,5.93,5.93,0,0,1-2.51-4.86c-.13-3-1-3.88-4-4.51a6.87,6.87,0,0,1-1.86-1.13,7.46,7.46,0,0,1,1.3-1.85,4.4,4.4,0,0,1,6.67,2,10.23,10.23,0,0,1,.73,3.9,3.71,3.71,0,0,0,1.6,3.18c4.35,3.54,9.5,4.3,14.86,4.33Z"/><path d="M293.71,266.35c-3.33-2.73-3.33-2.73-5-.55-1.38-.1-2.27-.64-2.33-2.26a7.1,7.1,0,0,0-.57-1.84,21.35,21.35,0,0,0-1.9,1,10.93,10.93,0,0,0-1.27,1.07c-1.34-.76-1.26-1.82-.72-2.87a8.86,8.86,0,0,1,4.92-4.2,3.1,3.1,0,0,1,1.63-.05C292.19,257.29,295.16,262.68,293.71,266.35Z"/><path d="M322.63,257.55c.82,1.14,2,2.18,2.4,3.46,1,3.69,1.76,7.46,2.47,11.23a2,2,0,0,1-.89,1.63c-1.41.81-2.95,1.41-4.66,2.19V258Z"/><path d="M283.53,281.13l.16-1.56c3,0,6.09,0,9.14,0,4,.05,8,.13,12.06.27,2.89.1,2.88.16,4.15,3.31l-24.1-1.62.05,0-1.48-.48Z"/><path d="M279.63,279.63c-1.14-3.49-.24-4.93,2.53-5,6-.07,12,0,18-.26,2.23-.09,2.86.92,3.31,2.87-6.75,0-13.36,0-20,0C281.83,277.23,280.34,277.23,279.63,279.63Z"/><path d="M308,260.06a26.85,26.85,0,0,1-4.74-1.68,3.84,3.84,0,0,1-.37-6.35c1.69-1.43,3.4-2.82,5.1-4.22.1-.08.29,0,.69-.08C308.44,251.71,308.22,255.65,308,260.06Z"/><path d="M334.48,279.24l-16.37,6.32c-.75-2.71-.49-3.12,1.65-4.06,3.44-1.52,6.82-3.17,10.27-4.68a2.33,2.33,0,0,1,1.83.1A20.56,20.56,0,0,1,334.48,279.24Z"/><path d="M287.53,333c.54,1.6-.06,2.2-1.64,2.19q-7.67,0-15.35,0c-1.53,0-2-.65-1.54-2.2Z"/><path d="M297.31,247.78c3.84-2.29,7.5-4.54,11.25-6.63.44-.25,1.33.29,2,.47-.23.59-.28,1.43-.71,1.72-3.06,2.06-6.18,4-9.32,6C299,250.29,298.33,249.14,297.31,247.78Z"/><path d="M306.48,272.64l9.73,5.56c-1.17,1.23-2.33,2.44-3.88,4.08L306,273Z"/><path d="M806.79,424.38c.63-1.14,1.21-2.21,2-3.69l6.22,4.44L812.31,428Z"/><path d="M314.71,237.27c2.28,1.81,1.66,4.59-1.53,7.17C313.73,241.86,314.18,239.74,314.71,237.27Z"/><path d="M210.28,118.4l.44-.61Z"/><path d="M225,94.73l.69,0c-.1.16-.2.31-.31.46Z"/><path d="M284,303.54v-5.76H273.07v5.37c-2.25.54-3.94-.48-4.09-2.91a80.64,80.64,0,0,1,.06-12c.2-2.22,2-3.88,4-5a2.4,2.4,0,0,1,2.81.42,5.33,5.33,0,0,0,5.81.27c1-.5,1.77-1.27,3-.39,1.51,1.11,3.52,1.84,3.61,4,.18,4.41.31,8.83.19,13.23C288.33,303.64,287,304.38,284,303.54Zm-.09-7.79c.22-1.25-.13-1.92-1.39-1.92h-8c-1.38,0-1.77.66-1.24,1.92Z"/><path d="M270.59,328a20.45,20.45,0,0,1-1.74-3.56c-1.07-4.25-.07-8.45.59-12.64.34-2.16.95-4.29,1.48-6.59h15c3.27,8.62,3.45,18.93.25,22.13-2.56-2.83-5.11-5.65-7.91-8.73Zm7.68-12.58c1.68-1.51,3.34-2.82,4.75-4.36a3.34,3.34,0,0,0,.45-2.56c-.07-.35-1.26-.66-2-.68-2.27-.09-4.55-.11-6.82,0-.65,0-1.73.54-1.81,1a3.24,3.24,0,0,0,.6,2.46A62.92,62.92,0,0,0,278.27,315.45Zm-2.81,1.82-2.68-2.36-.46.25v5.9Zm8.76-1.9-.49-.37-2.64,2.32,3.09,3.57.37-.21Z"/><path d="M278.59,327.05c-1.15-.26-3,.64-3.09-1.44s1.83-1.47,3-1.44,3.26-.76,3.22,1.47C281.69,327.67,279.77,326.81,278.59,327.05Z"/><path d="M283.51,281.11l1.48.48Z"/><path d="M283.9,295.75H273.29c-.53-1.26-.14-1.91,1.24-1.92h8C283.77,293.83,284.12,294.5,283.9,295.75Z"/><path d="M278.27,315.45a62.92,62.92,0,0,1-4.79-4.16,3.24,3.24,0,0,1-.6-2.46c.08-.43,1.16-.93,1.81-1,2.27-.12,4.55-.1,6.82,0,.7,0,1.89.33,2,.68a3.34,3.34,0,0,1-.45,2.56C281.61,312.63,280,313.94,278.27,315.45Z"/><path d="M275.46,317.27l-3.14,3.79v-5.9l.46-.25Z"/><path d="M284.22,315.37l.33,5.31-.37.21-3.09-3.57,2.64-2.32Z"/></g></svg>