<svg xmlns="http://www.w3.org/2000/svg" width="800" height="800" viewBox="0 0 800 800" version="1.1"><path d="M 666.500 309 C 587.462 309.454, 579.225 309.654, 576.500 311.180 C 573.317 312.962, 563.028 323.752, 550 338.970 C 547.525 341.861, 544.825 344.931, 544 345.792 C 542.701 347.148, 542.500 355.294, 542.500 406.528 C 542.500 454.222, 542.763 466.261, 543.855 468.599 C 544.601 470.195, 545.934 473.008, 546.818 474.852 C 547.702 476.696, 550.361 479.909, 552.728 481.992 C 561.040 489.308, 556.549 489.002, 655.188 488.985 C 731.097 488.973, 744.105 488.760, 747.808 487.470 C 756.900 484.303, 760.657 480.550, 764.972 470.320 L 768 463.139 768 430.159 C 768 398.462, 767.913 396.951, 765.771 391.339 C 762.795 383.541, 757.102 378.045, 749.623 375.750 C 744.449 374.162, 738.083 374, 680.949 374 C 607.215 374, 613.822 372.974, 601.482 386.345 L 594 394.452 594 380.160 C 594 371.170, 594.433 365.058, 595.169 363.684 C 595.812 362.483, 598.361 359.363, 600.834 356.750 L 605.331 352 666.516 352 L 727.700 352 731.636 349.149 C 733.801 347.581, 736.858 344.768, 738.430 342.899 C 740.002 341.029, 745.013 335.450, 749.566 330.500 C 754.118 325.550, 758.883 320.150, 760.155 318.500 C 761.426 316.850, 763.486 314.380, 764.733 313.010 C 765.980 311.641, 767 310.178, 767 309.760 C 767 308.440, 765.660 308.430, 666.500 309 M 34.667 309.667 C 34.300 310.033, 34 350.260, 34 399.060 C 34 479.044, 34.156 487.846, 35.582 488.393 C 38.538 489.527, 233.221 489.076, 239.473 487.920 C 246.017 486.711, 248.768 485.258, 254.332 480.072 C 258.543 476.148, 260.105 473.580, 262.695 466.328 C 264.094 462.410, 264.422 457.919, 264.437 442.500 C 264.457 421.904, 263.516 416.792, 258.232 408.785 C 255.280 404.312, 247.217 400, 241.804 400 C 238.747 400, 238 399.631, 238 398.119 C 238 396.709, 239.190 395.938, 242.750 395.043 C 252.649 392.555, 257.734 387.105, 260.602 375.909 C 261.805 371.211, 262.079 365.580, 261.826 350.681 C 261.509 332.005, 261.426 331.350, 258.694 325.786 C 257.129 322.598, 253.900 318.321, 251.389 316.111 C 242.842 308.588, 249.496 309, 136.489 309 C 80.853 309, 35.033 309.300, 34.667 309.667 M 293.375 310.621 C 285.476 313.422, 279.281 321.887, 276.445 333.754 C 274.476 341.989, 274.442 454.572, 276.405 463.719 C 278.197 472.072, 283.459 480.721, 289.044 484.491 L 293.500 487.500 388.320 487.770 C 449.591 487.944, 484.460 487.684, 486.873 487.034 C 496.039 484.566, 502.961 474.436, 505.556 459.691 C 507.609 448.025, 507.641 350.498, 505.596 337.900 C 503.215 323.228, 498.191 315.285, 488.500 310.867 C 484.717 309.143, 479.422 309.047, 391 309.101 C 311.599 309.149, 296.878 309.378, 293.375 310.621 M 97.680 365.241 L 97.860 376.500 148.180 376.500 L 198.500 376.500 198.500 365.500 L 198.500 354.500 148 354.241 L 97.500 353.982 97.680 365.241 M 338.676 364.658 C 338.304 365.029, 338 380.558, 338 399.167 L 338 433 390.513 433 L 443.026 433 442.763 398.750 L 442.500 364.500 390.926 364.241 C 362.560 364.099, 339.047 364.286, 338.676 364.658 M 97.707 430.740 L 97.914 443.500 149.207 443.500 L 200.500 443.500 200.500 431 L 200.500 418.500 149 418.240 L 97.500 417.981 97.707 430.740 M 658.500 418.981 C 624.704 419.346, 609.902 419.844, 608.478 420.663 C 606.043 422.064, 596.510 432.179, 595.045 434.917 C 594.470 435.990, 594 438.691, 594 440.919 L 594 444.969 653.002 445.234 C 685.453 445.380, 712.453 445.350, 713.002 445.167 C 713.597 444.968, 714 439.659, 714 432.024 C 714 418.306, 713.761 417.688, 708.668 418.231 C 707.476 418.358, 684.900 418.696, 658.500 418.981" stroke="none" fill="#fffcfc" fill-rule="evenodd"/><path d="" stroke="none" fill="#fcfcfc" fill-rule="evenodd"/></svg>