<svg  id="Layer_1" data-name="Layer 1" xmlns="http://www.w3.org/2000/svg" viewBox="0 0 500 260"><defs><style>.cls-1{fill:#fff;}</style></defs><g id="polygon9"><polygon class="cls-1" points="228.54 180.59 202.46 180.59 218.77 79.73 244.85 79.73 228.54 180.59"/></g><g id="path11"><path class="cls-1" d="M323.08,82.2a64.37,64.37,0,0,0-23.4-4.29c-25.75,0-43.88,13.73-44,33.36-.21,14.49,13,22.53,22.86,27.36,10.09,4.94,13.52,8.16,13.52,12.56-.1,6.76-8.15,9.87-15.66,9.87-10.41,0-16-1.6-24.47-5.36l-3.43-1.61-3.65,22.64c6.11,2.78,17.38,5.26,29.08,5.36,27.36,0,45.18-13.52,45.39-34.44.1-11.48-6.86-20.28-21.89-27.47-9.12-4.61-14.71-7.72-14.71-12.45.11-4.29,4.73-8.68,15-8.68a44.25,44.25,0,0,1,19.43,3.86l2.36,1.07,3.55-21.78Z"/></g><g id="path13"><path class="cls-1" d="M357.74,144.86c2.14-5.79,10.41-28.22,10.41-28.22-.11.22,2.14-5.9,3.43-9.65l1.82,8.69s4.94,24.14,6,29.18Zm32.19-65.13H369.76c-6.23,0-10.95,1.83-13.64,8.37l-38.73,92.49h27.36s4.51-12.45,5.47-15.13h33.49c.75,3.54,3.11,15.13,3.11,15.13H411l-21-100.86Z"/></g><g id="path15"><path class="cls-1" d="M180.68,79.73l-25.54,68.78-2.79-13.95c-4.73-16.09-19.53-33.58-36.06-42.28l23.39,88.2h27.58l41-100.75Z"/></g><g id="path17"><path class="cls-1" d="M131.42,79.73h-42l-.43,2c32.73,8.37,54.41,28.55,63.32,52.79l-9.13-46.35c-1.5-6.44-6.11-8.26-11.8-8.48Z"/></g></svg>
